<?xml version="1.0" encoding="UTF-8" standalone="no"?>
<!DOCTYPE svg PUBLIC "-//W3C//DTD SVG 1.1//EN" "http://www.w3.org/Graphics/SVG/1.1/DTD/svg11.dtd">
<svg width="100%" height="100%" viewBox="0 0 130 130" version="1.1" xmlns="http://www.w3.org/2000/svg" xmlns:xlink="http://www.w3.org/1999/xlink" xml:space="preserve" xmlns:serif="http://www.serif.com/" style="fill-rule:evenodd;clip-rule:evenodd;stroke-linecap:round;stroke-linejoin:round;stroke-miterlimit:1.5;">
    <g transform="matrix(1,0,0,1,-266.887,-335.073)">
        <g id="main" transform="matrix(1,0,0,1,59,0)">
            <rect x="0" y="0" width="1080" height="1920" style="fill:none;"/>
            <clipPath id="_clip1">
                <rect x="0" y="0" width="1080" height="1920"/>
            </clipPath>
            <g clip-path="url(#_clip1)">
                <g transform="matrix(1,0,0,1,-1538,0)">
                    <rect x="1513.59" y="170.982" width="1128.73" height="1563.4" style="fill:rgb(77,2,2);"/>
                </g>
                <g id="content" transform="matrix(1,0,0,1,-59,-50)">
                    <g id="trackItem" transform="matrix(1,0,0,0.98448,-2.71671,57.9092)">
                        <g transform="matrix(1,0,0,1.01576,240.457,-1441.1)">
                            <g>
                                <g id="playButton">
                                    <g transform="matrix(3.31445e-17,0.541291,-0.600859,3.6792e-17,1183.31,1713.37)">
                                        <path d="M180.052,1771.19L226.238,1854.4L133.866,1854.4L180.052,1771.19Z" style="fill:rgb(242,183,49);"/>
                                    </g>
                                    <g transform="matrix(0.881864,0,0,0.90629,-253.469,154.242)">
                                        <ellipse cx="394.1" cy="1827.88" rx="72.574" ry="70.618" style="fill:none;stroke:rgb(242,183,49);stroke-width:2.07px;"/>
                                    </g>
                                </g>
                            </g>
                        </g>
                        <g transform="matrix(1.12482,0,0,1.09557,-108.849,-44.2742)">
                            <rect x="209.426" y="311.226" width="844.581" height="185.432" style="fill:none;stroke:rgb(242,161,49);stroke-width:0.91px;"/>
                        </g>
                    </g>
                </g>
            </g>
        </g>
    </g>
</svg>
